<?xml version="1.0" encoding="UTF-8" standalone="no"?>
<!-- Created with Inkscape (http://www.inkscape.org/) -->

<svg
   width="12.909112mm"
   height="12.909112mm"
   viewBox="0 0 12.909112 12.909112"
   version="1.1"
   id="svg1"
   xml:space="preserve"
   xmlns="http://www.w3.org/2000/svg"
   xmlns:svg="http://www.w3.org/2000/svg"><defs
     id="defs1" /><g
     id="layer1"
     transform="translate(-114.46472,-152.44659)"><g
       id="g1-37"
       transform="matrix(0.26458333,0,0,0.26458333,114.3047,152.28656)"><path
         id="rect1-26"
         style="fill:none;stroke:#e1c158;stroke-width:2.5"
         d="M 9,9 H 41 V 41 H 9 Z" /><path
         id="rect2-0"
         transform="rotate(45,25,25)"
         style="fill:none;stroke:#e1c158;stroke-width:2.5"
         d="M 9,9 H 41 V 41 H 9 Z" /><path
         id="circle2-16"
         style="fill:#e1c158"
         d="M 38,25 A 13,13 0 0 1 25,38 13,13 0 0 1 12,25 13,13 0 0 1 25,12 13,13 0 0 1 38,25 Z" /><path
         style="font-size:18px;font-family:'Geometr415 Blk BT';-inkscape-font-specification:'Geometr415 Blk BT';text-anchor:middle;fill:#0b4629"
         d="M 18.698242,31.5 V 21.076172 H 16.46582 l 0.413086,-2.320313 H 21.52832 V 31.5 Z m 12.19043,-4.790039 v -4.860352 l -3.137695,4.860352 z m 0,4.790039 v -2.522461 h -5.387695 v -2.390625 l 5.0625,-7.831055 h 3.023437 v 7.954102 h 1.30957 v 2.267578 h -1.30957 V 31.5 Z"
         id="text2-5"
         aria-label="14" /></g></g></svg>
