<?xml version="1.0" encoding="UTF-8" standalone="no"?>
<!-- Created with Inkscape (http://www.inkscape.org/) -->

<svg
   width="12.90912mm"
   height="12.909112mm"
   viewBox="0 0 12.90912 12.909112"
   version="1.1"
   id="svg1"
   xml:space="preserve"
   xmlns="http://www.w3.org/2000/svg"
   xmlns:svg="http://www.w3.org/2000/svg"><defs
     id="defs1" /><g
     id="layer1"
     transform="translate(-98.545433,-142.04545)"><g
       id="g1"
       transform="matrix(0.26458333,0,0,0.26458333,98.385417,141.88542)"><rect
         x="9"
         y="9"
         width="32"
         height="32"
         fill="none"
         stroke="#e1c158"
         stroke-width="2.5"
         id="rect1" /><rect
         x="9"
         y="9"
         width="32"
         height="32"
         fill="none"
         stroke="#e1c158"
         stroke-width="2.5"
         transform="rotate(45,25,25)"
         id="rect2" /><circle
         cx="25"
         cy="25"
         r="13"
         fill="#e1c158"
         id="circle2" /><path
         style="font-size:18px;font-family:'Geometr415 Blk BT';-inkscape-font-specification:'Geometr415 Blk BT';text-anchor:middle;fill:#0b4629"
         d="m 20.166016,31.5 v -1.02832 l 4.605468,-5.519532 0.03516,-0.04395 q 1.283203,-1.520508 1.283203,-2.355469 0,-0.676757 -0.457032,-1.107422 -0.448242,-0.439453 -1.168945,-0.439453 -0.65039,0 -1.125,0.430664 -0.474609,0.421875 -0.632812,1.151368 l -2.434571,-1.204102 q 0.553711,-1.450195 1.6875,-2.241211 1.142578,-0.799805 2.671875,-0.799805 1.836914,0 3.084961,1.160157 1.248047,1.160156 1.248047,2.891601 0,1.063477 -0.5625,2.206055 -0.5625,1.133789 -1.740234,2.43457 l -1.669922,1.854492 h 4.570312 L 29.130859,31.5 Z"
         id="text2"
         aria-label="2" /></g></g></svg>
