<?xml version="1.0" encoding="UTF-8" standalone="no"?>
<!-- Created with Inkscape (http://www.inkscape.org/) -->

<svg
   width="12.90912mm"
   height="12.909112mm"
   viewBox="0 0 12.90912 12.909112"
   version="1.1"
   id="svg1"
   xml:space="preserve"
   xmlns="http://www.w3.org/2000/svg"
   xmlns:svg="http://www.w3.org/2000/svg"><defs
     id="defs1" /><g
     id="layer1"
     transform="translate(-117.961,-171.40011)"><g
       id="g1-99"
       transform="matrix(0.26458333,0,0,0.26458333,117.80098,171.24009)"><path
         id="rect1-6"
         style="fill:none;stroke:#e1c158;stroke-width:2.5"
         d="M 9,9 H 41 V 41 H 9 Z" /><path
         id="rect2-834"
         transform="rotate(45,25,25)"
         style="fill:none;stroke:#e1c158;stroke-width:2.5"
         d="M 9,9 H 41 V 41 H 9 Z" /><path
         id="circle2-84"
         style="fill:#e1c158"
         d="M 38,25 A 13,13 0 0 1 25,38 13,13 0 0 1 12,25 13,13 0 0 1 25,12 13,13 0 0 1 38,25 Z" /><path
         style="font-size:18px;font-family:'Geometr415 Blk BT';-inkscape-font-specification:'Geometr415 Blk BT';text-anchor:middle;fill:#0b4629"
         d="m 14.954102,31.5 v -1.02832 l 4.605468,-5.519532 0.03516,-0.04395 q 1.283203,-1.520508 1.283203,-2.355469 0,-0.676757 -0.457032,-1.107422 -0.448242,-0.439453 -1.168945,-0.439453 -0.650391,0 -1.125,0.430664 -0.474609,0.421875 -0.632812,1.151368 L 15.05957,21.383789 q 0.553711,-1.450195 1.6875,-2.241211 1.142578,-0.799805 2.671875,-0.799805 1.836914,0 3.084961,1.160157 1.248047,1.160156 1.248047,2.891601 0,1.063477 -0.5625,2.206055 -0.5625,1.133789 -1.740234,2.43457 l -1.669922,1.854492 h 4.570312 L 23.918945,31.5 Z m 13.58789,-6.37207 q 0,1.889648 0.439453,2.961914 0.448242,1.072265 1.22168,1.072265 0.782227,0 1.22168,-1.063476 0.448242,-1.063477 0.448242,-2.970703 0,-1.916016 -0.439453,-2.979493 -0.439453,-1.072265 -1.230469,-1.072265 -0.764648,0 -1.212891,1.081055 -0.448242,1.072265 -0.448242,2.970703 z m -2.90918,0 q 0,-3.19043 1.212891,-4.983399 1.22168,-1.801758 3.357422,-1.801758 2.135742,0 3.357422,1.801758 1.230469,1.801758 1.230469,4.983399 0,3.18164 -1.230469,4.983398 -1.22168,1.801758 -3.357422,1.801758 -2.135742,0 -3.357422,-1.792969 -1.212891,-1.801758 -1.212891,-4.992187 z"
         id="text2-99"
         aria-label="20" /></g></g></svg>
