<?xml version="1.0" encoding="UTF-8" standalone="no"?>
<!-- Created with Inkscape (http://www.inkscape.org/) -->

<svg
   width="12.90912mm"
   height="12.909112mm"
   viewBox="0 0 12.90912 12.909112"
   version="1.1"
   id="svg1"
   xml:space="preserve"
   xmlns="http://www.w3.org/2000/svg"
   xmlns:svg="http://www.w3.org/2000/svg"><defs
     id="defs1" /><g
     id="layer1"
     transform="translate(-64.22866,-208.93916)"><g
       id="g1-253"
       transform="matrix(0.26458333,0,0,0.26458333,64.068639,208.77912)"><path
         id="rect1-61"
         style="fill:none;stroke:#e1c158;stroke-width:2.5"
         d="M 9,9 H 41 V 41 H 9 Z" /><path
         id="rect2-86"
         transform="rotate(45,25,25)"
         style="fill:none;stroke:#e1c158;stroke-width:2.5"
         d="M 9,9 H 41 V 41 H 9 Z" /><path
         id="circle2-21"
         style="fill:#e1c158"
         d="M 38,25 A 13,13 0 0 1 25,38 13,13 0 0 1 12,25 13,13 0 0 1 25,12 13,13 0 0 1 38,25 Z" /><path
         style="font-size:18px;font-family:'Geometr415 Blk BT';-inkscape-font-specification:'Geometr415 Blk BT';text-anchor:middle;fill:#0b4629"
         d="m 14.954102,31.5 v -1.02832 l 4.605468,-5.519532 0.03516,-0.04395 q 1.283203,-1.520508 1.283203,-2.355469 0,-0.676757 -0.457032,-1.107422 -0.448242,-0.439453 -1.168945,-0.439453 -0.650391,0 -1.125,0.430664 -0.474609,0.421875 -0.632812,1.151368 L 15.05957,21.383789 q 0.553711,-1.450195 1.6875,-2.241211 1.142578,-0.799805 2.671875,-0.799805 1.836914,0 3.084961,1.160157 1.248047,1.160156 1.248047,2.891601 0,1.063477 -0.5625,2.206055 -0.5625,1.133789 -1.740234,2.43457 l -1.669922,1.854492 h 4.570312 L 23.918945,31.5 Z m 17.033203,-8.604492 q 0,-0.817383 -0.527344,-1.379883 -0.527344,-0.5625 -1.274414,-0.5625 -0.764649,0 -1.300781,0.571289 -0.536133,0.5625 -0.536133,1.371094 0,0.817383 0.536133,1.379883 0.536132,0.5625 1.300781,0.5625 0.755859,0 1.274414,-0.553711 0.527344,-0.5625 0.527344,-1.388672 z m -1.78418,4.394531 q -0.05273,0 -0.166992,0.0088 -0.105469,0.0088 -0.158203,0.0088 -1.916016,0 -3.128907,-1.256836 -1.21289,-1.256836 -1.21289,-3.243164 0,-1.916015 1.344726,-3.199219 1.344727,-1.283203 3.357422,-1.283203 1.924805,0 3.216797,1.362305 1.300781,1.353516 1.300781,3.427734 0,1.801758 -1.21289,3.875977 -1.212891,2.06543 -3.700196,4.508789 h -3.401367 q 1.248047,-1.318359 2.126953,-2.302734 0.878907,-0.993164 1.634766,-1.907227 z"
         id="text2-4"
         aria-label="29" /></g></g></svg>
