<?xml version="1.0" encoding="UTF-8" standalone="no"?>
<!-- Created with Inkscape (http://www.inkscape.org/) -->

<svg
   width="12.90912mm"
   height="12.909112mm"
   viewBox="0 0 12.90912 12.909112"
   version="1.1"
   id="svg1"
   xml:space="preserve"
   xmlns="http://www.w3.org/2000/svg"
   xmlns:svg="http://www.w3.org/2000/svg"><defs
     id="defs1" /><g
     id="layer1"
     transform="translate(-98.545433,-142.04545)"><g
       id="g1"
       transform="matrix(0.26458333,0,0,0.26458333,98.385417,141.88542)"><rect
         x="9"
         y="9"
         width="32"
         height="32"
         fill="none"
         stroke="#e1c158"
         stroke-width="2.5"
         id="rect1" /><rect
         x="9"
         y="9"
         width="32"
         height="32"
         fill="none"
         stroke="#e1c158"
         stroke-width="2.5"
         transform="rotate(45,25,25)"
         id="rect2" /><circle
         cx="25"
         cy="25"
         r="13"
         fill="#e1c158"
         id="circle2" /><path
         style="font-size:18px;font-family:'Geometr415 Blk BT';-inkscape-font-specification:'Geometr415 Blk BT';text-anchor:middle;fill:#0b4629"
         d="m 21.572266,27.826172 q 0.817382,0.632812 1.511718,0.94043 0.703125,0.307617 1.309571,0.307617 0.791015,0 1.265625,-0.413086 0.483398,-0.413086 0.483398,-1.081055 0,-0.764648 -0.65918,-1.151367 -0.659179,-0.386719 -1.951171,-0.386719 h -0.342774 v -2.188476 q 1.458984,-0.06152 2.170899,-0.47461 0.711914,-0.421875 0.711914,-1.221679 0,-0.553711 -0.369141,-0.905274 -0.360352,-0.351562 -0.931641,-0.351562 -0.509765,0 -1.098632,0.325195 -0.588868,0.325195 -1.291993,1.001953 l -1.617187,-1.705078 q 0.896484,-1.107422 1.916015,-1.652344 1.028321,-0.544922 2.206055,-0.544922 1.713867,0 2.838867,1.063477 1.133789,1.054687 1.133789,2.645508 0,0.861328 -0.395507,1.564453 -0.386719,0.703125 -1.116211,1.151367 0.852539,0.421875 1.318359,1.230469 0.46582,0.808593 0.46582,1.880859 0,1.810547 -1.274414,2.944336 -1.265625,1.125 -3.313476,1.125 -1.186524,0 -2.364258,-0.439453 -1.177734,-0.448242 -2.135742,-1.265625 z"
         id="text2"
         aria-label="3" /></g></g></svg>
